# xmcd CD database file
#
# Track frame offsets:
#	150
#	13663
#	26669
#	38383
#	57839
#	73260
#	87017
#	97105
#	112051
#	128893
#	157788
#	170298
#
# Disc length: 2413 seconds
#
# Revision: 0
# Processed by: cddbd v1.5.2PL0 Copyright (c) Steve Scherf et al.
# Submitted via: CDex 1.70beta2
#
DISCID=92096b0c
DTITLE=Los Bluesfalos - Mi guitarra y el Blues
DYEAR=1991
DGENRE=Blues
TTITLE0=Mi guitarra y el blues
TTITLE1=Ponme otro whiskey (mañana te lo pago)
TTITLE2=Tributo a Steve Ray Vaughan
TTITLE3=Salgo a buscarte ahora
TTITLE4=Bebe
TTITLE5=Perica en dulce
TTITLE6=El gafe se marchó
TTITLE7=Ya estoy solo otra vez
TTITLE8=Blues (como me gusta el blues)
TTITLE9=Hola Mary
TTITLE10=Cuando estoy cansado 
TTITLE11=Pretuberancias clientes
EXTD=YEAR: 1991
EXTT0=
EXTT1=
EXTT2=
EXTT3=
EXTT4=
EXTT5=
EXTT6=
EXTT7=
EXTT8=
EXTT9=
EXTT10=
EXTT11=
PLAYORDER=
